# Blender v2.79 (sub 0) OBJ File: ''
# www.blender.org
mtllib ArrowDown.mtl
o Cube.002_Cube.003
v -0.999335 -0.000000 -0.524120
v -2.047575 -0.000000 0.000000
v -0.999335 0.161962 -0.498468
v -0.999335 0.308070 -0.424022
v -0.999335 0.424022 -0.308070
v -0.999335 0.498468 -0.161962
v -0.999335 0.524120 0.000000
v -0.999335 0.498468 0.161962
v -0.999335 0.424022 0.308070
v -0.999335 0.308070 0.424022
v -0.999335 0.161962 0.498468
v -0.999335 -0.000000 0.524120
v -0.999335 -0.161962 0.498468
v -0.999335 -0.308070 0.424022
v -0.999335 -0.424022 0.308070
v -0.999335 -0.498468 0.161962
v -0.999335 -0.524120 -0.000000
v -0.999335 -0.498468 -0.161962
v -0.999335 -0.424022 -0.308070
v -0.999335 -0.308069 -0.424022
v -0.999335 -0.161961 -0.498468
v -0.005918 0.166239 -0.064281
v -0.339251 0.166239 -0.064281
v -0.672584 0.166239 -0.064281
v -1.005917 0.166239 -0.064281
v -0.005918 -0.167094 -0.064281
v -0.339251 -0.167094 -0.064281
v -0.672584 -0.167094 -0.064281
v -1.005917 -0.167094 -0.064281
v -0.339251 0.166239 0.064281
v -0.005917 0.166239 0.064281
v -0.672584 0.166239 0.064281
v -1.005917 0.166239 0.064281
v -0.005917 -0.167094 0.064281
v -0.339251 -0.167094 0.064281
v -0.672584 -0.167094 0.064281
v -1.005917 -0.167094 0.064281
vn -0.4428 0.1403 -0.8856
vn -0.4428 0.4071 -0.7989
vn -0.4428 0.6340 -0.6340
vn -0.4428 0.7989 -0.4071
vn -0.4428 0.8856 -0.1403
vn -0.4428 0.8856 0.1403
vn -0.4428 0.7989 0.4071
vn -0.4428 0.6340 0.6340
vn -0.4428 0.4071 0.7989
vn -0.4428 0.1403 0.8856
vn -0.4428 -0.1403 0.8856
vn -0.4428 -0.4071 0.7989
vn -0.4428 -0.6340 0.6340
vn -0.4428 -0.7989 0.4071
vn -0.4428 -0.8856 0.1403
vn -0.4428 -0.8856 -0.1403
vn -0.4428 -0.7989 -0.4071
vn -0.4428 -0.6340 -0.6340
vn -0.4428 -0.4071 -0.7989
vn -0.4428 -0.1403 -0.8856
vn 0.0000 -0.0000 -1.0000
vn 0.0000 0.0000 1.0000
vn 1.0000 -0.0000 -0.0000
vn 0.9998 0.0190 0.0030
vn 0.0000 1.0000 -0.0000
vn 0.0000 -1.0000 -0.0000
vn 0.9999 0.0078 -0.0152
vn 0.9998 -0.0189 -0.0030
vn 0.9999 0.0000 0.0143
vn 0.9998 -0.0131 -0.0131
vn 0.9999 -0.0078 -0.0152
vn 0.9999 0.0024 -0.0152
vn 0.9998 0.0131 -0.0131
vn 0.9999 -0.0000 -0.0143
vn 0.9999 -0.0024 -0.0152
vn 0.9998 0.0173 -0.0088
vn 0.9998 0.0190 -0.0030
vn 0.9998 0.0173 0.0088
vn 0.9998 0.0184 0.0000
vn 0.9998 -0.0172 0.0088
vn 0.9998 -0.0189 0.0030
vn 0.9998 -0.0172 -0.0088
vn 0.9998 -0.0184 0.0000
vn 0.9999 0.0024 0.0152
vn 0.9999 -0.0078 0.0152
vn 0.9998 -0.0131 0.0131
vn 0.9998 0.0131 0.0131
vn 0.9999 0.0078 0.0152
vn 0.9999 -0.0024 0.0152
usemtl Down
s off
f 1//1 2//1 3//1
f 3//2 2//2 4//2
f 4//3 2//3 5//3
f 5//4 2//4 6//4
f 6//5 2//5 7//5
f 7//6 2//6 8//6
f 8//7 2//7 9//7
f 9//8 2//8 10//8
f 10//9 2//9 11//9
f 11//10 2//10 12//10
f 12//11 2//11 13//11
f 13//12 2//12 14//12
f 14//13 2//13 15//13
f 15//14 2//14 16//14
f 16//15 2//15 17//15
f 17//16 2//16 18//16
f 18//17 2//17 19//17
f 19//18 2//18 20//18
f 20//19 2//19 21//19
f 21//20 2//20 1//20
f 22//21 26//21 27//21 23//21
f 23//21 27//21 28//21 24//21
f 24//21 28//21 29//21 25//21
f 31//22 30//22 35//22 34//22
f 30//22 32//22 36//22 35//22
f 32//22 33//22 37//22 36//22
f 26//23 22//23 31//23 34//23
f 17//24 18//24 29//24
f 22//25 23//25 30//25 31//25
f 27//26 26//26 34//26 35//26
f 27//26 35//26 36//26 28//26
f 24//25 25//25 33//25 32//25
f 29//26 28//26 36//26 37//26
f 23//25 24//25 32//25 30//25
f 13//27 14//27 37//27
f 7//28 8//28 33//28
f 25//29 29//29 1//29
f 33//30 9//30 10//30
f 10//31 11//31 33//31
f 12//32 13//32 37//32
f 14//33 15//33 37//33
f 37//34 33//34 12//34
f 11//35 12//35 33//35
f 37//36 15//36 16//36
f 16//37 17//37 37//37
f 18//38 19//38 29//38
f 29//39 37//39 17//39
f 25//40 5//40 6//40
f 6//41 7//41 25//41
f 8//42 9//42 33//42
f 33//43 25//43 7//43
f 21//44 1//44 29//44
f 3//45 4//45 25//45
f 5//46 25//46 4//46
f 29//47 19//47 20//47
f 20//48 21//48 29//48
f 3//49 25//49 1//49
