# Blender v2.79 (sub 0) OBJ File: ''
# www.blender.org
mtllib Arrow.mtl
o Cube_Cube.001
v -0.257126 -0.015359 0.257126
v -0.257126 1.046051 0.257126
v -0.257126 -0.015359 -0.257126
v -0.257126 1.046051 -0.257126
v 0.257126 -0.015359 0.257126
v 0.257126 1.046051 0.257126
v 0.257126 -0.015359 -0.257126
v 0.257126 1.046051 -0.257126
v -0.000000 1.007664 -0.524120
v -0.000000 2.055904 0.000000
v 0.161962 1.007664 -0.498468
v 0.308070 1.007664 -0.424022
v 0.424022 1.007664 -0.308070
v 0.498468 1.007664 -0.161962
v 0.524120 1.007664 0.000000
v 0.498468 1.007664 0.161962
v 0.424022 1.007664 0.308070
v 0.308070 1.007664 0.424022
v 0.161962 1.007664 0.498468
v -0.000000 1.007664 0.524120
v -0.161962 1.007664 0.498468
v -0.308070 1.007664 0.424022
v -0.424022 1.007664 0.308070
v -0.498468 1.007664 0.161962
v -0.524120 1.007664 -0.000000
v -0.498468 1.007664 -0.161962
v -0.424022 1.007664 -0.308070
v -0.308069 1.007664 -0.424022
v -0.161961 1.007664 -0.498468
vn -1.0000 0.0000 0.0000
vn 0.0000 0.0000 -1.0000
vn 1.0000 0.0000 0.0000
vn 0.0000 0.0000 1.0000
vn 0.0000 -1.0000 0.0000
vn 0.0000 1.0000 0.0000
vn 0.1403 0.4428 -0.8856
vn 0.4071 0.4428 -0.7989
vn 0.6340 0.4428 -0.6340
vn 0.7989 0.4428 -0.4071
vn 0.8856 0.4428 -0.1403
vn 0.8856 0.4428 0.1403
vn 0.7989 0.4428 0.4071
vn 0.6340 0.4428 0.6340
vn 0.4071 0.4428 0.7989
vn 0.1403 0.4428 0.8856
vn -0.1403 0.4428 0.8856
vn -0.4071 0.4428 0.7989
vn -0.6340 0.4428 0.6340
vn -0.7989 0.4428 0.4071
vn -0.8856 0.4428 0.1403
vn -0.8856 0.4428 -0.1403
vn -0.7989 0.4428 -0.4071
vn -0.6340 0.4428 -0.6340
vn -0.4071 0.4428 -0.7989
vn -0.1403 0.4428 -0.8856
usemtl Default
s off
f 1//1 2//1 4//1 3//1
f 3//2 4//2 8//2 7//2
f 7//3 8//3 6//3 5//3
f 5//4 6//4 2//4 1//4
f 3//5 7//5 5//5 1//5
f 8//6 4//6 2//6 6//6
f 9//7 10//7 11//7
f 11//8 10//8 12//8
f 12//9 10//9 13//9
f 13//10 10//10 14//10
f 14//11 10//11 15//11
f 15//12 10//12 16//12
f 16//13 10//13 17//13
f 17//14 10//14 18//14
f 18//15 10//15 19//15
f 19//16 10//16 20//16
f 20//17 10//17 21//17
f 21//18 10//18 22//18
f 22//19 10//19 23//19
f 23//20 10//20 24//20
f 24//21 10//21 25//21
f 25//22 10//22 26//22
f 26//23 10//23 27//23
f 27//24 10//24 28//24
f 28//25 10//25 29//25
f 29//26 10//26 9//26
f 9//5 11//5 12//5 13//5 14//5 15//5 16//5 17//5 18//5 19//5 20//5 21//5 22//5 23//5 24//5 25//5 26//5 27//5 28//5 29//5
