{
    "accessors" : [
        {
            "bufferView" : 0, 
            "componentType" : 5123, 
            "count" : 2430, 
            "max" : [
                499
            ], 
            "min" : [
                0
            ], 
            "type" : "SCALAR"
        }, 
        {
            "bufferView" : 1, 
            "componentType" : 5126, 
            "count" : 500, 
            "max" : [
                9.875334739685059, 
                33.794586181640625, 
                9.740715980529785
            ], 
            "min" : [
                -9.910320281982422, 
                -1.2345319986343384, 
                -9.890318870544434
            ], 
            "type" : "VEC3"
        }, 
        {
            "bufferView" : 2, 
            "componentType" : 5126, 
            "count" : 500, 
            "max" : [
                0.99993896484375, 
                0.9981078505516052, 
                0.999664306640625
            ], 
            "min" : [
                -0.99993896484375, 
                -0.6865444183349609, 
                -0.99993896484375
            ], 
            "type" : "VEC3"
        }, 
        {
            "bufferView" : 3, 
            "componentType" : 5126, 
            "count" : 500, 
            "max" : [
                0.999936580657959, 
                0.9447427988052368, 
                0.9997715353965759, 
                1.0
            ], 
            "min" : [
                -0.9996272325515747, 
                -0.989311695098877, 
                -0.9985425472259521, 
                1.0
            ], 
            "type" : "VEC4"
        }, 
        {
            "bufferView" : 4, 
            "componentType" : 5126, 
            "count" : 500, 
            "max" : [
                0.9999001026153564, 
                1.6138075590133667
            ], 
            "min" : [
                4.955388430971652e-05, 
                4.9591064453125e-05
            ], 
            "type" : "VEC2"
        }
    ], 
    "asset" : {
        "generator" : "Khronos Blender glTF 2.0 exporter", 
        "version" : "2.0"
    }, 
    "bufferViews" : [
        {
            "buffer" : 0, 
            "byteLength" : 4860, 
            "byteOffset" : 0, 
            "target" : 34963
        }, 
        {
            "buffer" : 0, 
            "byteLength" : 6000, 
            "byteOffset" : 4860, 
            "target" : 34962
        }, 
        {
            "buffer" : 0, 
            "byteLength" : 6000, 
            "byteOffset" : 10860, 
            "target" : 34962
        }, 
        {
            "buffer" : 0, 
            "byteLength" : 8000, 
            "byteOffset" : 16860, 
            "target" : 34962
        }, 
        {
            "buffer" : 0, 
            "byteLength" : 4000, 
            "byteOffset" : 24860, 
            "target" : 34962
        }
    ], 
    "buffers" : [
        {
            "byteLength" : 28860, 
            "uri" : "data:application/octet-stream;base64,"
        }
    ], 
    "images" : [
        {
            "uri" : "Hedge_Metallic.png"
        }, 
        {
            "uri" : "Hedge_Normal.png"
        }
    ], 
    "materials" : [
        {
            "name" : "HedgeMat", 
            "normalTexture" : {
                "index" : 1
            }, 
            "pbrMetallicRoughness" : {
                "metallicFactor" : 0.05776399374008179, 
                "metallicRoughnessTexture" : {
                    "index" : 0
                }
            }
        }
    ], 
    "meshes" : [
        {
            "name" : "Untitled.008", 
            "primitives" : [
                {
                    "attributes" : {
                        "NORMAL" : 2, 
                        "POSITION" : 1, 
                        "TANGENT" : 3, 
                        "TEXCOORD_0" : 4
                    }, 
                    "indices" : 0, 
                    "material" : 0
                }
            ]
        }
    ], 
    "nodes" : [
        {
            "name" : "Camera", 
            "rotation" : [
                0.483536034822464, 
                0.33687159419059753, 
                -0.20870360732078552, 
                0.7804827094078064
            ], 
            "translation" : [
                7.481131553649902, 
                5.34366512298584, 
                6.5076398849487305
            ]
        }, 
        {
            "mesh" : 0, 
            "name" : "HedgeLowRandPoly", 
            "rotation" : [
                -2.1855695919725804e-08, 
                0.0, 
                -0.0, 
                1.0
            ], 
            "scale" : [
                0.10000002384185791, 
                0.10000002384185791, 
                0.10000002384185791
            ]
        }, 
        {
            "name" : "Lamp", 
            "rotation" : [
                0.16907575726509094, 
                0.7558802962303162, 
                -0.27217137813568115, 
                0.570947527885437
            ], 
            "scale" : [
                1.0, 
                1.0, 
                0.9999999403953552
            ], 
            "translation" : [
                4.076245307922363, 
                5.903861999511719, 
                -1.0054539442062378
            ]
        }
    ], 
    "samplers" : [
        {}
    ], 
    "scene" : 0, 
    "scenes" : [
        {
            "name" : "Scene", 
            "nodes" : [
                1, 
                2, 
                0
            ]
        }
    ], 
    "textures" : [
        {
            "sampler" : 0, 
            "source" : 0
        }, 
        {
            "sampler" : 0, 
            "source" : 1
        }
    ]
}
