{
    "accessors" : [
        {
            "bufferView" : 0, 
            "componentType" : 5121, 
            "count" : 144, 
            "max" : [
                119
            ], 
            "min" : [
                0
            ], 
            "type" : "SCALAR"
        }, 
        {
            "bufferView" : 1, 
            "componentType" : 5126, 
            "count" : 120, 
            "max" : [
                0.4699999988079071, 
                0.16999998688697815, 
                0.4445597231388092
            ], 
            "min" : [
                -0.4699999988079071, 
                -0.4000000059604645, 
                -0.4445597231388092
            ], 
            "type" : "VEC3"
        }, 
        {
            "bufferView" : 2, 
            "componentType" : 5126, 
            "count" : 120, 
            "max" : [
                0.7922465205192566, 
                1.0, 
                0.9148073792457581
            ], 
            "min" : [
                -0.7922465205192566, 
                -0.7615393400192261, 
                -0.9148073792457581
            ], 
            "type" : "VEC3"
        }, 
        {
            "bufferView" : 3, 
            "componentType" : 5126, 
            "count" : 120, 
            "max" : [
                0.9573134779930115, 
                0.669869065284729, 
                1.0, 
                1.0
            ], 
            "min" : [
                -0.6143254041671753, 
                -0.9016879796981812, 
                -0.9021466970443726, 
                1.0
            ], 
            "type" : "VEC4"
        }, 
        {
            "bufferView" : 4, 
            "componentType" : 5126, 
            "count" : 120, 
            "max" : [
                1.0069113969802856, 
                1.0080132186412811
            ], 
            "min" : [
                0.002588629722595215, 
                0.027192771434783936
            ], 
            "type" : "VEC2"
        }
    ], 
    "asset" : {
        "generator" : "Khronos Blender glTF 2.0 exporter", 
        "version" : "2.0"
    }, 
    "bufferViews" : [
        {
            "buffer" : 0, 
            "byteLength" : 144, 
            "byteOffset" : 0, 
            "target" : 34963
        }, 
        {
            "buffer" : 0, 
            "byteLength" : 1440, 
            "byteOffset" : 144, 
            "target" : 34962
        }, 
        {
            "buffer" : 0, 
            "byteLength" : 1440, 
            "byteOffset" : 1584, 
            "target" : 34962
        }, 
        {
            "buffer" : 0, 
            "byteLength" : 1920, 
            "byteOffset" : 3024, 
            "target" : 34962
        }, 
        {
            "buffer" : 0, 
            "byteLength" : 960, 
            "byteOffset" : 4944, 
            "target" : 34962
        }
    ], 
    "buffers" : [
        {
            "byteLength" : 5904, 
            "uri" : "data:application/octet-stream;base64,"
        }
    ], 
    "images" : [
        {
            "uri" : "GazeGem_Material.001_BaseColor.png"
        }, 
        {
            "uri" : "GazeGem_Material.001_Roughness.png"
        }, 
        {
            "uri" : "GazeGem_Material.001_Metallic.png"
        }, 
        {
            "uri" : "GazeGem_Material.001_Normal.png"
        }
    ], 
    "materials" : [
        {
            "name" : "Material.001", 
            "normalTexture" : {
                "index" : 3
            }, 
            "pbrMetallicRoughness" : {
                "baseColorTexture" : {
                    "index" : 0
                }, 
                "metallicRoughnessTexture" : {
                    "index" : 1
                }
            }
        }
    ], 
    "meshes" : [
        {
            "name" : "Gem.001", 
            "primitives" : [
                {
                    "attributes" : {
                        "NORMAL" : 2, 
                        "POSITION" : 1, 
                        "TANGENT" : 3, 
                        "TEXCOORD_0" : 4
                    }, 
                    "indices" : 0, 
                    "material" : 0
                }
            ]
        }
    ], 
    "nodes" : [
        {
            "mesh" : 0, 
            "name" : "Gem.001", 
            "translation" : [
                0.0, 
                1.4573397636413574, 
                -0.0
            ]
        }
    ], 
    "samplers" : [
        {}
    ], 
    "scene" : 0, 
    "scenes" : [
        {
            "name" : "Scene", 
            "nodes" : [
                0
            ]
        }
    ], 
    "textures" : [
        {
            "sampler" : 0, 
            "source" : 0
        }, 
        {
            "sampler" : 0, 
            "source" : 1
        }, 
        {
            "sampler" : 0, 
            "source" : 2
        }, 
        {
            "sampler" : 0, 
            "source" : 3
        }
    ]
}
